<svg width="34" height="36" viewBox="0 0 34 36" fill="none" xmlns="http://www.w3.org/2000/svg">
<path d="M33.4871 33.8809L29.665 12.5572C29.5112 11.6987 28.7643 11.0738 27.892 11.0738H21.5356C22.7274 9.89991 23.468 8.2691 23.468 6.46801C23.468 2.9015 20.5665 0 17 0C13.4335 0 10.5319 2.9015 10.5319 6.46801C10.5319 8.2691 11.2726 9.89991 12.4644 11.0738H6.10789C5.23563 11.0738 4.48885 11.6987 4.33491 12.5572L0.512866 33.8809C0.418843 34.4059 0.562099 34.9456 0.904449 35.3546C1.24668 35.7636 1.75258 35.9999 2.28585 35.9999H31.7141C32.2474 35.9999 32.7533 35.7636 33.0955 35.3546C33.4377 34.9456 33.5811 34.4059 33.4871 33.8809ZM17 3.60241C18.5802 3.60241 19.8656 4.88787 19.8656 6.46801C19.8656 8.04815 18.5802 9.33373 17 9.33373C15.4199 9.33373 14.1343 8.04815 14.1343 6.46801C14.1343 4.88787 15.4199 3.60241 17 3.60241ZM16.5293 27.8738C16.4355 28.0467 16.2545 28.1544 16.0578 28.1544H15.2081C15.0176 28.1544 14.8413 28.0534 14.745 27.889L12.6422 24.2992L11.2974 25.672V27.3251C11.2974 27.7831 10.9261 28.1544 10.4681 28.1544C10.0101 28.1544 9.63886 27.7831 9.63886 27.3251V20.7691C9.63886 20.3111 10.0101 19.9398 10.4681 19.9398C10.9261 19.9398 11.2974 20.3111 11.2974 20.7691V23.5875L14.489 20.1134C14.5906 20.0028 14.734 19.9398 14.8841 19.9398H15.6133C15.8288 19.9398 16.0232 20.0686 16.1074 20.2668C16.1914 20.4651 16.1488 20.6944 15.9992 20.8492L13.7854 23.1391L16.5076 27.3253C16.6148 27.4904 16.6232 27.7008 16.5293 27.8738ZM24.7 26.7799C24.7 26.9429 24.6255 27.0978 24.4981 27.1995C24.1672 27.4636 23.7311 27.7006 23.1901 27.9105C22.5306 28.1664 21.8628 28.2943 21.1868 28.2943C20.3275 28.2943 19.5788 28.1142 18.9397 27.7536C18.3011 27.3932 17.8209 26.8777 17.4997 26.2071C17.1784 25.5365 17.0178 24.8073 17.0178 24.019C17.0178 23.1636 17.1971 22.4033 17.5558 21.7385C17.9143 21.0735 18.4392 20.5638 19.1304 20.2087C19.6568 19.9361 20.3126 19.7996 21.0971 19.7996C22.1169 19.7996 22.9134 20.0136 23.4869 20.4413C23.7353 20.6266 23.9454 20.8426 24.117 21.0893C24.281 21.325 24.3143 21.6277 24.2055 21.8933C24.0967 22.159 23.8607 22.3518 23.5784 22.4046L23.5765 22.405C23.2458 22.4668 22.9105 22.3203 22.7315 22.0355C22.6169 21.8532 22.4708 21.6972 22.2934 21.5674C21.9739 21.334 21.5751 21.2173 21.0971 21.2173C20.3723 21.2173 19.796 21.4471 19.3685 21.9064C18.9408 22.3661 18.7269 23.0478 18.7269 23.9517C18.7269 24.9268 18.9434 25.658 19.3769 26.1455C19.8102 26.6329 20.3779 26.8766 21.0804 26.8766C21.4276 26.8766 21.776 26.8086 22.1253 26.6721C22.4744 26.5357 22.7742 26.3704 23.0246 26.1763V25.1339H21.8172C21.435 25.1339 21.1253 24.8241 21.1253 24.442C21.1253 24.0598 21.4351 23.7501 21.8172 23.7501H24.1634C24.4598 23.7501 24.7 23.9904 24.7 24.2866V26.7799Z" fill="#00CDA8"/>
</svg>
