<svg width="32" height="36" viewBox="0 0 32 36" fill="none" xmlns="http://www.w3.org/2000/svg">
<path d="M15.9996 11.1415C12.2172 11.1415 9.14024 14.2185 9.14024 18.0006C9.14024 21.7829 12.2172 24.8599 15.9996 24.8599C19.7816 24.8599 22.8586 21.7829 22.8586 18.0006C22.8586 14.2185 19.7816 11.1415 15.9996 11.1415ZM20.0719 16.7088L15.158 21.6227C14.9517 21.829 14.6812 21.9323 14.4109 21.9323C14.1407 21.9323 13.8704 21.8293 13.6641 21.6227L11.7863 19.7449C11.3738 19.3326 11.3738 18.6639 11.7863 18.2513C12.1986 17.8388 12.8673 17.8388 13.2799 18.2513L14.4109 19.3824L18.5783 15.2152C18.9906 14.8027 19.6594 14.8027 20.0719 15.2152C20.4844 15.6275 20.4844 16.2963 20.0719 16.7088Z" fill="#00CDA8"/>
<path d="M31.292 9.76673L31.2909 9.73872C31.2752 9.39293 31.2648 9.02708 31.2585 8.62004C31.2291 6.63509 29.6512 4.99319 27.666 4.88223C23.5269 4.65124 20.3249 3.30157 17.5891 0.634924L17.5657 0.612677C16.6733 -0.205528 15.3272 -0.205528 14.4346 0.612677L14.4113 0.634924C11.6754 3.30157 8.47344 4.65124 4.33436 4.8825C2.34941 4.99319 0.771227 6.63509 0.741839 8.62031C0.735796 9.02461 0.725085 9.39045 0.709429 9.73872L0.707781 9.80381C0.627307 14.0245 0.527331 19.2773 2.28459 24.0451C3.25083 26.667 4.71421 28.9461 6.63379 30.8195C8.82006 32.953 11.6836 34.6469 15.1449 35.8537C15.2575 35.893 15.3745 35.9248 15.4937 35.9487C15.6618 35.9822 15.831 35.999 16.0002 35.999C16.1693 35.999 16.3388 35.9822 16.5066 35.9487C16.6258 35.9248 16.7437 35.8927 16.8568 35.8531C20.3139 34.6441 23.1745 32.9495 25.3588 30.8162C27.2776 28.9422 28.741 26.6626 29.708 24.0401C31.4719 19.2581 31.3722 13.9954 31.292 9.76673ZM15.9996 26.9713C11.0525 26.9713 7.02792 22.9467 7.02792 17.9996C7.02792 13.0525 11.0525 9.02791 15.9996 9.02791C20.9465 9.02791 24.9713 13.0525 24.9713 17.9996C24.9713 22.9467 20.9465 26.9713 15.9996 26.9713Z" fill="#00CDA8"/>
</svg>
