<svg width="36" height="36" viewBox="0 0 36 36" fill="none" xmlns="http://www.w3.org/2000/svg">
<path d="M10.7146 4.10198V34.282C10.7146 34.7536 10.4907 35.1975 10.1122 35.4779C9.85358 35.6681 9.54346 35.7682 9.22838 35.7682C9.08273 35.7682 8.9351 35.7464 8.79243 35.7028L1.04927 33.3199C0.426047 33.1297 0 32.553 0 31.8991V1.7181C0 1.24647 0.223922 0.80259 0.602411 0.522192C0.98189 0.240802 1.47234 0.157575 1.92217 0.297278L9.66533 2.68017C10.2885 2.87239 10.7146 3.44805 10.7146 4.10198ZM34.9488 2.68215L27.2066 0.29926C26.7558 0.159556 26.2683 0.242784 25.8868 0.524173C25.5074 0.804572 25.2854 1.24746 25.2854 1.72008V31.9001C25.2854 32.553 25.7115 33.1287 26.3357 33.3209L34.0788 35.7038C34.2225 35.7474 34.3691 35.7692 34.5138 35.7692C34.8249 35.7692 35.137 35.6671 35.3986 35.4789C35.7781 35.1985 36 34.7556 36 34.283V4.10297C35.999 3.44805 35.572 2.87239 34.9488 2.68215ZM22.7529 0.523183C22.3734 0.242784 21.884 0.159556 21.4331 0.298269L13.691 2.68215C13.0668 2.87338 12.6407 3.45003 12.6407 4.10297V34.283C12.6407 34.7546 12.8646 35.1985 13.2431 35.4789C13.5027 35.6681 13.8119 35.7692 14.1269 35.7692C14.2726 35.7692 14.4202 35.7474 14.5629 35.7038L22.309 33.3209C22.9322 33.1317 23.3583 32.555 23.3583 31.9001V1.71909C23.3553 1.24647 23.1334 0.804572 22.7529 0.523183Z" fill="#00CDA8"/>
</svg>
