<svg width="36" height="36" viewBox="0 0 36 36" fill="none" xmlns="http://www.w3.org/2000/svg">
<path d="M35.588 33.5992L2.40079 0.411987C1.85147 -0.137329 0.961029 -0.137329 0.411987 0.411987C-0.137329 0.961029 -0.137329 1.85147 0.411987 2.40051L6.11691 8.10544L0.40155 20.0907L0.396881 20.1011C-0.343872 21.6876 -0.0186768 23.5934 1.20575 24.8439L10.8877 34.7327C11.6963 35.5586 12.7944 35.9975 13.9076 35.9975C14.491 35.9975 15.0787 35.877 15.6305 35.6284L28.1258 30.1146L33.5992 35.588C33.8739 35.8627 34.2339 36 34.5938 36C34.9536 36 35.3134 35.8627 35.588 35.588C36.1373 35.039 36.1373 34.1485 35.588 33.5992ZM13.5091 15.4979L3.5582 20.0056L8.22656 10.2154L13.5091 15.4979ZM14.4901 33.0576L14.4786 33.0628C13.9438 33.3048 13.3083 33.185 12.8974 32.7654L3.46756 23.1342L15.6341 17.6229L25.9928 27.9816L14.4901 33.0576ZM11.3816 6.0076C11.0536 5.30365 11.3588 4.46704 12.0627 4.13937L20.1025 0.396057C21.6873 -0.343872 23.5931 -0.0186768 24.8439 1.20547L34.733 10.8877C35.9923 12.1209 36.3516 14.0279 35.627 15.6341L31.9411 23.9156C31.7079 24.4394 31.194 24.7503 30.6554 24.7503C30.4645 24.7503 30.2704 24.7113 30.0844 24.6286C29.375 24.3127 29.0558 23.4814 29.3717 22.7719L33.0628 14.4786C33.3045 13.9438 33.185 13.3083 32.7654 12.8974L23.1339 3.46756L19.6326 11.1975C19.3975 11.7166 18.886 12.0237 18.3507 12.0237C18.1568 12.0237 17.9596 11.9833 17.7715 11.8982C17.064 11.5777 16.7503 10.7444 17.0708 10.0368L20.0138 3.53979L13.2498 6.68903C12.5458 7.01669 11.7092 6.71182 11.3816 6.0076Z" fill="#00CDA8"/>
</svg>
