<svg width="36" height="36" viewBox="0 0 36 36" fill="none" xmlns="http://www.w3.org/2000/svg">
<g clip-path="url(#clip0)">
<path d="M35.9556 26.3426C35.9213 26.3027 35.8706 26.2791 35.8174 26.2791H0.18262C0.129388 26.2791 0.0791135 26.3023 0.0443649 26.3426C0.00961619 26.3826 -0.00590981 26.4362 0.00185319 26.489C0.00702852 26.5223 0.544524 29.8219 4.71621 29.8219H31.2838C35.4551 29.8219 35.9926 26.5223 35.9982 26.489C36.0055 26.4362 35.99 26.3826 35.9556 26.3426ZM20.6799 28.6664H15.3197V27.4339H20.6799V28.6664Z" fill="#00CDA8"/>
<path d="M3.88409 24.9965H32.1155C32.5237 24.9965 32.8549 24.6653 32.8549 24.2571V6.91756C32.8549 6.50944 32.5237 6.17822 32.1155 6.17822H3.88409C3.47598 6.17822 3.14476 6.50944 3.14476 6.91756V24.2571C3.14476 24.6653 3.47598 24.9965 3.88409 24.9965ZM5.73243 8.76589H30.2672V22.4088H5.73243V8.76589V8.76589Z" fill="#00CDA8"/>
</g>
<defs>
<clipPath id="clip0">
<rect width="36" height="36" fill="white"/>
</clipPath>
</defs>
</svg>
