<svg width="173" height="38" viewBox="0 0 173 38" fill="none" xmlns="http://www.w3.org/2000/svg">
<path d="M172.489 17.2655V14.2359H168.733V9.52538L168.606 9.56453L165.078 10.6457L165.008 10.667V14.2359H159.44V12.2475C159.44 11.3219 159.647 10.6134 160.054 10.1411C160.459 9.67424 161.037 9.43693 161.774 9.43693C162.305 9.43693 162.853 9.56212 163.406 9.80958L163.545 9.87144V6.68048L163.48 6.6568C162.964 6.4712 162.263 6.37743 161.393 6.37743C160.298 6.37743 159.302 6.6162 158.434 7.08986C157.565 7.56353 156.882 8.24019 156.404 9.10053C155.927 9.95989 155.685 10.9522 155.685 12.0503V14.2364H153.069V17.266H155.685V30.0289H159.439V17.266H165.007V25.3773C165.007 28.7176 166.58 30.4102 169.682 30.4102C170.193 30.4102 170.729 30.3498 171.276 30.2328C171.834 30.113 172.214 29.9921 172.437 29.8645L172.487 29.835V26.7775L172.335 26.8785C172.13 27.0143 171.878 27.1264 171.58 27.2086C171.282 27.2927 171.032 27.3352 170.839 27.3352C170.112 27.3352 169.574 27.139 169.24 26.7519C168.903 26.3608 168.731 25.6774 168.731 24.7223V17.2664H172.488L172.489 17.2655ZM144.687 27.3343C143.325 27.3343 142.25 26.8819 141.493 25.9901C140.731 25.094 140.345 23.8171 140.345 22.1935C140.345 20.5188 140.731 19.209 141.494 18.2964C142.251 17.3907 143.315 16.931 144.657 16.931C145.959 16.931 146.995 17.3699 147.737 18.237C148.483 19.1079 148.862 20.4086 148.862 22.1027C148.862 23.818 148.506 25.1346 147.804 26.0167C147.106 26.8906 146.057 27.3343 144.687 27.3343ZM144.855 13.8551C142.255 13.8551 140.19 14.6183 138.717 16.1229C137.246 17.6285 136.5 19.7116 136.5 22.3153C136.5 24.7876 137.228 26.776 138.664 28.226C140.101 29.6751 142.055 30.4102 144.473 30.4102C146.994 30.4102 149.017 29.6364 150.489 28.1115C151.961 26.5866 152.706 24.5227 152.706 21.9804C152.706 19.4685 152.007 17.4651 150.626 16.0252C149.245 14.5854 147.302 13.8551 144.855 13.8551ZM130.447 13.8551C128.678 13.8551 127.216 14.308 126.098 15.2016C124.974 16.1002 124.403 17.279 124.403 18.7053C124.403 19.4472 124.526 20.1051 124.768 20.6638C125.013 21.2245 125.389 21.7179 125.89 22.1317C126.388 22.543 127.155 22.9727 128.172 23.4106C129.027 23.7629 129.665 24.0611 130.07 24.296C130.466 24.5266 130.748 24.7576 130.906 24.9833C131.059 25.2042 131.138 25.5053 131.138 25.8785C131.138 26.9394 130.345 27.4566 128.713 27.4566C128.108 27.4566 127.416 27.3294 126.661 27.0815C125.904 26.8306 125.196 26.472 124.559 26.0124L124.404 25.9017V29.5214L124.46 29.5489C124.992 29.7949 125.662 30.0023 126.451 30.1642C127.239 30.3276 127.955 30.4107 128.577 30.4107C130.495 30.4107 132.041 29.9554 133.168 29.0559C134.304 28.1516 134.878 26.9457 134.878 25.4686C134.878 24.4053 134.569 23.4918 133.959 22.7552C133.353 22.0249 132.3 21.3554 130.833 20.7624C129.664 20.2921 128.915 19.9025 128.607 19.6034C128.31 19.3134 128.157 18.9049 128.157 18.3868C128.157 17.9272 128.345 17.5598 128.728 17.2616C129.114 16.9619 129.651 16.8097 130.326 16.8097C130.952 16.8097 131.592 16.9088 132.228 17.1021C132.864 17.2959 133.423 17.5555 133.888 17.8735L134.041 17.9784V14.5438L133.983 14.5182C133.552 14.3336 132.985 14.1755 132.296 14.047C131.61 13.9194 130.988 13.8551 130.447 13.8551ZM114.617 27.3343C113.254 27.3343 112.179 26.8819 111.423 25.9901C110.661 25.094 110.275 23.8171 110.275 22.1935C110.275 20.5188 110.661 19.209 111.423 18.2964C112.18 17.3907 113.244 16.931 114.587 16.931C115.888 16.931 116.924 17.3699 117.667 18.237C118.412 19.1079 118.791 20.4086 118.791 22.1027C118.791 23.818 118.436 25.1346 117.734 26.0167C117.035 26.8906 115.987 27.3343 114.617 27.3343ZM114.784 13.8551C112.183 13.8551 110.118 14.6183 108.647 16.1229C107.175 17.6285 106.428 19.7116 106.428 22.3153C106.428 24.7886 107.158 26.776 108.593 28.226C110.029 29.6755 111.984 30.4102 114.403 30.4102C116.923 30.4102 118.947 29.6364 120.419 28.1115C121.889 26.5866 122.635 24.5227 122.635 21.9804C122.635 19.4685 121.936 17.4651 120.554 16.0252C119.175 14.5854 117.233 13.8551 114.784 13.8551ZM100.73 16.9706V14.2355H97.0205V30.0279H100.73V21.9495C100.73 20.5753 101.041 19.4468 101.654 18.5951C102.26 17.7527 103.068 17.3259 104.054 17.3259C104.387 17.3259 104.763 17.381 105.169 17.4902C105.571 17.599 105.863 17.7164 106.034 17.8402L106.189 17.9533V14.2079L106.129 14.1823C105.783 14.0354 105.295 13.9609 104.677 13.9609C103.745 13.9609 102.911 14.2606 102.196 14.8512C101.569 15.3703 101.116 16.0823 100.77 16.9697L100.73 16.9706ZM90.3799 13.8551C88.6791 13.8551 87.1606 14.2205 85.8704 14.9411C84.5764 15.6627 83.5771 16.6937 82.8963 18.005C82.2189 19.3134 81.8748 20.8407 81.8748 22.5435C81.8748 24.036 82.2078 25.4048 82.8673 26.6122C83.5274 27.8205 84.461 28.7664 85.6422 29.4218C86.8229 30.0767 88.1864 30.4092 89.6962 30.4092C91.4592 30.4092 92.9632 30.0569 94.1694 29.3594L94.2186 29.3319V25.9287L94.0633 26.0414C93.5166 26.4406 92.9062 26.7586 92.2491 26.9882C91.5934 27.2173 90.9946 27.3328 90.4706 27.3328C89.0154 27.3328 87.8477 26.8775 87.0009 25.978C86.1503 25.0766 85.7194 23.8132 85.7194 22.2221C85.7194 20.6208 86.1691 19.324 87.0545 18.367C87.9375 17.4129 89.108 16.9291 90.5328 16.9291C91.7511 16.9291 92.9395 17.3423 94.0628 18.1587L94.2182 18.2718V14.6859L94.168 14.6574C93.7448 14.4201 93.1692 14.2243 92.4517 14.076C91.7405 13.93 91.0423 13.8551 90.3799 13.8551ZM79.32 14.2359H75.611V30.0289H79.32V14.2359ZM77.5034 7.50795C76.893 7.50795 76.3613 7.71626 75.9242 8.12855C75.4846 8.54228 75.2617 9.06331 75.2617 9.67763C75.2617 10.2823 75.4822 10.7936 75.916 11.1967C76.3483 11.5984 76.8824 11.8014 77.5034 11.8014C78.1249 11.8014 78.6599 11.5984 79.0981 11.1972C79.5386 10.7941 79.7615 10.2828 79.7615 9.67763C79.7615 9.08458 79.5444 8.56935 79.1164 8.14546C78.6884 7.72255 78.1456 7.50795 77.5034 7.50795ZM68.2505 13.0706V30.0289H72.0352V7.99128H66.7977L60.1397 24.3598L53.6775 7.99128H48.2263V30.0289H51.7828V13.0687H51.9048L58.7279 30.0279H61.412L68.1284 13.0701L68.2505 13.0706Z" fill="#4D4848"/>
<path d="M17.9579 18.1036H0.511664V0.627197H17.9574L17.9579 18.1036Z" fill="#4D4848"/>
<path d="M37.2198 18.1036H19.7741V0.627197H37.2198V18.1036Z" fill="#4D4848"/>
<path d="M17.9574 37.406H0.511169V19.9296H17.9569L17.9574 37.406Z" fill="#4D4848"/>
<path d="M37.2198 37.406H19.7741V19.9296H37.2198V37.406Z" fill="#4D4848"/>
</svg>
