<svg width="81" height="41" viewBox="0 0 81 41" fill="none" xmlns="http://www.w3.org/2000/svg">
<path d="M57.5387 15.1018C57.7255 15.3448 57.9524 15.6147 58.326 16.2221C59.3668 17.9497 61.4484 21.6883 63.5433 25.4C64.9044 27.8024 66.3722 30.4613 67.1594 31.9865C69.5746 27.8024 72.2967 21.054 74.0714 15.0613C74.2449 14.454 74.5251 14.1705 75.0455 14.1705C75.3257 14.1705 75.7794 14.292 77.047 14.6834C77.8076 14.9129 79.3421 15.3987 79.9025 15.5742C80.4897 15.7632 80.7298 16.0601 80.7298 16.438C80.7298 16.8159 80.5163 17.4098 80.2228 18.2196C77.8476 24.7251 74.5518 31.7975 70.6821 37.7902C69.201 40.0711 67.5731 40.7325 64.8377 40.7325C61.9554 40.7325 60.6745 39.9497 59.26 37.8441C58.2993 36.4135 57.2985 34.8343 55.9508 32.7153C58.0191 29.2061 58.8998 24.9681 58.8998 20.784C58.9131 18.1116 58.2059 15.9386 57.5387 15.1018Z" fill="#4D4848"/>
<path d="M58.9132 20.784C58.9132 24.9681 58.0325 29.2196 55.9642 32.7153L49.1457 21.9313C48.305 20.4736 48.0782 19.8662 48.0782 19.0429C48.0782 16.627 52.3081 14.0221 55.177 14.0221C56.2044 14.0221 56.8449 14.2785 57.5387 15.1018C58.1926 15.9386 58.9132 18.1116 58.9132 20.784Z" fill="#4D4848"/>
<path d="M55.9642 32.7153C52.9219 37.7632 47.7047 40.7325 40.6059 40.7325C35.2285 40.7325 30.3714 39.0589 27.6894 36.5889C31.0653 33.7276 33.3871 29.3141 33.3871 23.9423V25.7914C33.3871 28.9092 34.0276 30.7718 35.3753 32.1619C36.7763 33.6196 38.9246 34.4159 41.7134 34.4159C47.5846 34.4159 50.6136 30.6908 50.6136 26.5742C50.6136 24.9276 50.1332 23.5779 49.1725 21.9313L55.9642 32.7153Z" fill="#4D4848"/>
<path d="M5.9794 10.8773C2.71023 10.8773 0.682007 8.52881 0.682007 5.55949C0.682007 2.59017 2.71023 0.241699 5.9794 0.241699C9.26191 0.241699 11.2768 2.59017 11.2768 5.55949C11.2768 8.52881 9.26191 10.8773 5.9794 10.8773ZM27.676 36.6024C24.9406 39.1533 20.3237 40.746 15.8937 40.746C11.4636 40.746 6.79336 39.5178 4.05793 36.7509C1.94965 34.6184 0.748725 31.9325 0.748725 27.2086V15.3718C0.748725 14.7914 0.948878 14.5349 1.57603 14.5349H10.3694C10.9966 14.5349 11.2101 14.7914 11.2101 15.3583V28.4503C11.2101 30.5423 11.6504 31.9595 12.6111 32.9852C13.5319 33.9705 15.0664 34.5509 16.801 34.5509C18.5757 34.5509 20.1903 33.9435 21.2177 32.8233C22.392 31.5546 22.9124 29.746 22.9124 26.3987V25.3595C22.9124 29.692 24.4202 33.7411 27.676 36.6024Z" fill="#4D4848"/>
<path d="M28.143 3.02206C30.1045 3.02206 31.7591 3.38648 32.5731 4.12881C33.1202 4.6282 33.3737 5.30304 33.3737 6.28832V14.5214H41.6467C42.2739 14.5214 42.4874 14.7779 42.4874 15.3448V20.3791C42.4874 20.946 42.2739 21.2024 41.6467 21.2024H37.0032C35.5487 21.2024 34.3478 20.9865 33.3737 20.5681V23.9423C33.3737 29.3141 31.0653 33.7276 27.6894 36.5889C24.4335 33.7276 22.9123 29.665 22.9123 25.346V6.30182C22.9123 5.31654 23.1659 4.64169 23.713 4.12881C24.5136 3.38648 26.1548 3.02206 28.143 3.02206Z" fill="#4D4848"/>
</svg>
