<svg width="168" height="32" viewBox="0 0 168 32" fill="none" xmlns="http://www.w3.org/2000/svg">
<path d="M11.423 31.4101H5.17554V15.9961H0.925537V10.9561H5.17554V7.38608C5.17554 3.14409 7.04554 0.120117 13.293 0.120117C14.6105 0.120117 16.693 0.372107 16.693 0.372107V5.0341H14.5255C12.3155 5.0341 11.423 5.7061 11.423 7.55409V10.9561H16.608L16.1405 15.9961H11.423V31.4101ZM25.788 10.5361C25.703 10.5361 25.618 10.5361 25.4905 10.5361C19.668 10.5361 17.033 14.8621 17.033 20.9941C17.033 28.7221 20.4755 31.7881 25.5331 31.7881C28.423 31.7881 30.3356 30.5701 31.4831 28.3441V31.4101H37.4331V10.9561H31.4831V14.1061C30.5906 12.0901 28.6355 10.5781 25.788 10.5361ZM27.318 15.3661C29.7405 15.3661 31.228 17.0461 31.228 19.9021V22.8421C31.228 24.7741 30.038 27.0421 27.318 27.0421C23.153 27.0421 23.2805 22.6321 23.2805 21.1201C23.2805 16.1641 25.4905 15.3661 27.318 15.3661ZM39.898 21.1621C39.898 18.6841 39.7705 10.5361 50.4805 10.5361C54.773 10.5361 56.6005 11.8801 56.6005 11.8801L55.1555 16.2901C55.1555 16.2901 53.3706 15.3241 51.0331 15.3241C48.0581 15.3241 46.1456 17.0461 46.1456 20.0701V22.2541C46.1456 25.1521 47.9731 27.0841 51.0331 27.0841C53.1581 27.0841 55.113 26.1181 55.113 26.1181L56.5581 30.4441C56.5581 30.4441 54.9005 31.7881 50.523 31.7881C40.323 31.8301 39.898 24.5221 39.898 21.1621ZM91.493 10.5781C97.3156 10.5781 99.9931 14.9041 99.9931 21.0361C99.9931 28.7641 96.5506 31.8301 91.493 31.8301C88.6031 31.8301 86.4355 30.6121 85.288 28.3861V31.4521H79.423V0.792107L85.6706 0.246086V13.8961C86.5631 11.4181 89.538 10.5781 91.493 10.5781ZM89.7505 15.3661C87.328 15.3661 85.6706 17.0461 85.6706 19.9021V22.8421C85.6706 24.7741 86.818 27.0421 89.7505 27.0421C93.9155 27.0421 93.788 22.6321 93.788 21.1201C93.788 16.1641 91.578 15.3661 89.7505 15.3661ZM67.438 10.5781C60.8505 10.5781 57.3656 14.1061 57.3656 20.4481V21.6241C57.3656 29.8141 62.253 31.9141 68.0755 31.9141C73.728 31.9141 76.2781 30.3601 76.2781 30.3601L75.1305 26.2021C75.1305 26.2021 72.1131 27.4621 68.8406 27.4621C65.4406 27.4621 63.9531 26.6221 63.5706 23.3461H76.788V19.9861C76.788 13.1401 72.878 10.5781 67.438 10.5781ZM67.5656 14.7361C69.8605 14.7361 71.3056 16.1221 71.2206 19.3141H63.528C63.6981 15.9541 65.313 14.7361 67.5656 14.7361ZM112.446 10.5361C105.688 10.5361 102.118 14.3161 102.118 21.0361C102.118 30.2761 108.238 31.7881 112.446 31.7881C118.608 31.7881 122.688 28.5121 122.688 21.1201C122.688 13.4341 118.098 10.5361 112.446 10.5361ZM112.361 15.4081C115.336 15.4081 116.526 17.5921 116.526 20.1121V22.2541C116.526 25.2781 114.868 27.0421 112.361 27.0421C110.023 27.0421 108.366 25.4041 108.366 22.2541V20.1121C108.366 16.7521 110.321 15.4081 112.361 15.4081ZM135.141 10.5361C128.383 10.5361 124.813 14.3161 124.813 21.0361C124.813 30.2761 130.933 31.7881 135.141 31.7881C141.303 31.7881 145.383 28.5121 145.383 21.1201C145.383 13.4341 140.793 10.5361 135.141 10.5361ZM135.056 15.4081C138.031 15.4081 139.221 17.5921 139.221 20.1121V22.2541C139.221 25.2781 137.563 27.0421 135.056 27.0421C132.718 27.0421 131.061 25.4041 131.061 22.2541V20.1121C131.061 16.7521 133.016 15.4081 135.056 15.4081ZM147.763 31.4101V0.750117L154.011 0.204097V20.7421L160.216 10.9561H166.846L160.386 21.1201L167.101 31.4101H160.471L154.011 21.4141V31.4101H147.763Z" fill="#4C4848"/>
</svg>
