<svg width="151" height="34" viewBox="0 0 151 34" fill="none" xmlns="http://www.w3.org/2000/svg">
<path d="M1.49999 33.4999C0.774988 33.4999 0.424988 33.1999 0.424988 32.6249V32.4499C0.424988 32.0749 0.724989 31.5249 1.32499 30.7999C1.87499 30.1749 2.19999 29.3999 2.22499 28.5499V6.29992C2.19999 5.47492 1.87499 4.67492 1.32499 4.04992C0.724989 3.29992 0.424988 2.74992 0.424988 2.39992V2.22492C0.424988 1.64992 0.799988 1.37492 1.49999 1.37492H11.45C12.175 1.37492 12.525 1.64992 12.525 2.22492V2.39992C12.525 2.74992 12.175 3.29992 11.5 4.04992C10.875 4.64992 10.525 5.44992 10.475 6.29992V27.3749C10.45 28.0999 10.65 28.8249 11.05 29.4499C11.4 29.9999 12.025 30.3499 12.7 30.2999H17.4C18.275 30.2999 19.125 29.9249 19.725 29.2999C20.4 28.6749 20.95 27.9249 21.35 27.0749C21.7 26.2999 22.15 25.5499 22.65 24.8499C23.125 24.1999 23.6 23.8499 24.05 23.8499H24.675C25.425 23.8499 25.725 24.2249 25.575 24.9749L24.4 31.9999C24.225 32.9749 23.7 33.4499 22.825 33.4499L1.49999 33.4999Z" fill="#34444C"/>
<path d="M35.7 33.4999H26.875C26.15 33.4999 25.8 33.1999 25.8 32.6249V32.4499C25.8 32.0749 26.1 31.5249 26.7 30.7749C27.25 30.1499 27.575 29.3499 27.6 28.4999V19.8999C27.575 19.0499 27.25 18.2499 26.7 17.6249C26.1 16.8749 25.8 16.3749 25.8 16.0999V15.9249C25.8 15.5499 26.15 15.2249 26.85 14.8749L33.675 11.5249C34.3 11.2499 34.8 11.2249 35.175 11.4249C35.55 11.6499 35.75 12.0499 35.725 12.4749V28.4999L35.7 33.4999ZM31.725 8.64991C30.5 8.69991 29.275 8.29991 28.35 7.49991C27.5 6.77491 27.025 5.6999 27.05 4.5999C27.025 3.4749 27.5 2.42491 28.35 1.69991C29.3 0.899906 30.5 0.474907 31.725 0.524907C32.95 0.474907 34.15 0.899905 35.075 1.6749C35.925 2.39991 36.4 3.47491 36.375 4.57491C36.4 5.69991 35.925 6.74991 35.075 7.49991C34.125 8.27491 32.95 8.69991 31.725 8.64991ZM37.7 9.49991C37.7 6.82491 38.475 4.62491 40.05 2.94991C41.625 1.24991 43.95 0.424905 47.075 0.424905C48.925 0.374905 50.725 0.999907 52.175 2.14991C53.6 3.29991 54.3 4.62491 54.3 6.17491C54.3 6.87491 54.025 7.54991 53.525 8.04991C52.95 8.62491 52.175 8.94991 51.35 8.89991C50.525 8.94991 49.675 8.72491 49 8.24991C48.45 7.84991 48.05 7.29991 47.85 6.67491C47.65 6.07491 47.5 5.4499 47.375 4.8499C47.275 4.2999 47.05 3.74991 46.75 3.29991C46.45 2.84991 45.925 2.59991 45.4 2.64991C44.375 2.64991 43.8 3.2749 43.65 4.54991C43.525 5.87491 43.65 7.22491 44.025 8.49991C44.325 9.64991 44.75 10.7749 45.325 11.8249H50.45C51.025 11.7999 51.5 12.2749 51.5 12.8749V13.8749C51.525 14.4499 51.05 14.9499 50.45 14.9249H45.475V28.5999C45.475 29.3749 45.875 30.1499 46.7 30.8749C47.525 31.6249 47.925 32.1749 47.925 32.5249V32.6999C47.925 33.2749 47.575 33.5499 46.875 33.5499H37.7V9.49991ZM37.7 28.4999V14.8499Z" fill="#34444C"/>
<path d="M69.575 26.0499C69.175 25.8999 68.75 26.0249 68.475 26.3499C67.975 26.9749 67.325 27.4749 66.6 27.7749C65.775 28.1499 64.875 28.3499 63.95 28.3499C61.75 28.3499 60.025 27.3749 58.8 25.3999L67.8 20.3249C68.225 20.1249 68.6 19.8249 68.9 19.4749L67.75 16.7499C67.4 15.9749 66.95 15.2499 66.375 14.6249C65.725 13.8749 65.4 13.2749 65.4 12.8249V12.6499C65.4 12.4749 65.425 12.3249 65.525 12.1749C64.05 11.5749 62.475 11.2999 60.9 11.3499C57.975 11.2999 55.15 12.4249 53.05 14.4999C50.875 16.5999 49.775 19.2749 49.775 22.5249C49.775 25.9249 50.825 28.6999 52.9 30.7999C54.975 32.8999 57.675 33.9749 60.95 33.9749C63.625 33.9749 65.825 33.1999 67.5 31.6249C69.2 30.0499 70.075 28.5249 70.125 26.9999C70.2 26.5749 69.975 26.1749 69.575 26.0499ZM57.05 18.2999C57 17.0999 57.3 15.9249 57.875 14.8999C58.425 13.9999 59.175 13.5499 60.075 13.5499C61.1 13.5499 61.85 14.0749 62.35 15.1249C62.825 16.0749 63.075 17.1249 63.1 18.1999C63.15 19.1249 62.7 19.9999 61.925 20.4999L57.725 23.0249C57.25 21.4999 57.025 19.8999 57.05 18.2999ZM100.625 11.7749C101.275 11.7749 101.625 12.0499 101.625 12.6249V12.7999C101.625 13.2249 101.225 13.7999 100.45 14.5499C99.775 15.1499 99.225 15.8999 98.9 16.7499L93.3 32.3249C93.125 33.0499 92.45 33.5249 91.725 33.4999H89.925C89.05 33.4999 88.5 33.0999 88.3 32.3249L84.6 20.2499L80.85 32.3249C80.7 33.0749 80.025 33.5749 79.275 33.4999H78C77.275 33.4999 76.725 33.0999 76.375 32.3249L69.9 16.7499C69.55 15.9749 69.1 15.2499 68.525 14.6249C67.875 13.8749 67.55 13.2749 67.55 12.8249V12.6499C67.55 12.0749 67.9 11.7999 68.6 11.7999H77.7C78.375 11.7999 78.7 12.0999 78.7 12.6999V12.8749C78.65 13.2499 78.45 13.5999 78.15 13.8499C77.775 14.1999 77.475 14.6249 77.275 15.0749C77.05 15.6499 77.05 16.2999 77.3 16.8499L80.25 25.7999L84 12.9499C84.2 12.2749 84.575 11.9499 85.125 11.9499L87.875 11.8999C88.45 11.8749 88.95 12.2499 89.05 12.7999L92.725 25.6999L95.525 17.5999C95.8 16.9999 95.85 16.3499 95.65 15.7249C95.525 15.2749 95.275 14.8499 94.925 14.5249C94.625 14.2499 94.325 13.9749 94.025 13.6749C93.775 13.4749 93.6 13.1749 93.575 12.8499V12.6749C93.575 12.0749 93.925 11.7749 94.625 11.7749H100.625ZM101.925 33.4999C101.2 33.4999 100.85 33.1999 100.85 32.6249V32.4499C100.85 32.0749 101.15 31.5249 101.75 30.7749C102.3 30.1499 102.625 29.3499 102.65 28.4999V19.8999C102.625 19.0499 102.3 18.2499 101.75 17.6249C101.15 16.8749 100.85 16.3749 100.85 16.0999V15.9249C100.85 15.5499 101.2 15.2249 101.9 14.8749L108.725 11.5249C109.35 11.2499 109.85 11.2249 110.225 11.4249C110.6 11.6499 110.8 12.0499 110.775 12.4749V28.4999C110.775 29.2499 111.125 29.9999 111.8 30.7499C112.475 31.4999 112.825 32.0499 112.825 32.4249V32.5999C112.825 33.1749 112.45 33.4499 111.7 33.4499L101.925 33.4999ZM106.775 8.64988C105.55 8.69988 104.325 8.29988 103.4 7.49988C102.55 6.77488 102.075 5.69988 102.1 4.59988C102.075 3.47488 102.55 2.42488 103.4 1.69988C104.35 0.899881 105.55 0.474882 106.775 0.524882C108 0.474882 109.175 0.89988 110.1 1.67488C110.95 2.39988 111.425 3.47488 111.4 4.57488C111.425 5.69988 110.95 6.74988 110.1 7.49988C109.175 8.27488 107.975 8.69988 106.775 8.64988ZM149.85 26.0499C149.45 25.8999 149.025 26.0249 148.75 26.3499C148.25 26.9749 147.6 27.4749 146.875 27.7749C146.05 28.1499 145.15 28.3499 144.225 28.3499C142.025 28.3499 140.3 27.3749 139.075 25.3999L148.075 20.3249C149.175 19.8249 149.875 18.7249 149.85 17.5249C149.85 15.9249 149.1 14.4999 147.575 13.2249C146.075 11.9499 143.95 11.3249 141.2 11.3249C138.4 11.2749 135.7 12.2999 133.65 14.1999C134.125 14.9749 134.375 15.8999 134.35 16.8249C134.35 19.6749 133.2 21.0749 130.875 21.0749C130.625 21.0749 130.4 21.0499 130.15 21.0249C130.1 21.5249 130.075 22.0249 130.075 22.5249C130.075 25.9249 131.125 28.6999 133.2 30.7999C135.275 32.8999 137.975 33.9749 141.25 33.9749C143.925 33.9749 146.125 33.1999 147.8 31.6249C149.5 30.0499 150.375 28.5249 150.425 26.9999C150.5 26.5749 150.25 26.1749 149.85 26.0499ZM137.325 18.2999C137.275 17.0999 137.575 15.9249 138.15 14.8999C138.7 13.9999 139.45 13.5499 140.35 13.5499C141.375 13.5499 142.125 14.0749 142.625 15.1249C143.1 16.0749 143.35 17.1249 143.375 18.1999C143.4 19.1249 142.975 19.9999 142.2 20.4999L138 23.0499C137.525 21.4999 137.3 19.8999 137.325 18.2999Z" fill="#34444C"/>
<path d="M128.75 11.3248C129.925 11.2748 131.05 11.7248 131.85 12.5998C132.625 13.4748 133.05 14.6248 133 15.7998C133 18.6248 131.85 20.0498 129.525 20.0498C128.6 20.0498 127.875 19.8248 127.4 19.3998C126.95 19.0248 126.65 18.4998 126.55 17.9248C126.475 17.3998 126.325 16.8998 126.075 16.4498C125.875 16.0248 125.45 15.7748 125 15.7998C123.875 15.7998 123.325 17.2498 123.325 20.1498V28.5748C123.325 29.3248 123.725 30.0748 124.525 30.8248C125.325 31.5748 125.725 32.1248 125.725 32.4748V32.6498C125.725 33.2248 125.375 33.4998 124.65 33.4998H114.925C114.2 33.4998 113.85 33.2248 113.85 32.6498V32.4748C113.85 32.0998 114.15 31.5498 114.75 30.8248C115.3 30.1998 115.625 29.4248 115.65 28.5748V19.5748C115.675 19.0248 115.475 18.4748 115.1 18.0498C114.775 17.6498 114.4 17.2998 114.025 16.9748C113.7 16.7498 113.5 16.3748 113.475 15.9748V15.8498C113.475 15.3498 113.825 14.8998 114.525 14.5248L120.9 11.5498C121.5 11.3498 121.925 11.3248 122.175 11.4998C122.425 11.6748 122.55 12.0248 122.55 12.5498V15.8498C123.55 12.7998 125.625 11.3248 128.75 11.3248Z" fill="#34444C"/>
</svg>
