<svg width="93" height="35" viewBox="0 0 93 35" fill="none" xmlns="http://www.w3.org/2000/svg">
<path d="M90.8691 8.68902C89.2072 7.90289 86.9454 7.20758 83.76 7.20758C80.3466 7.20758 77.5782 7.71846 77.5782 10.307C77.5782 14.8862 90.0846 13.1741 90.0846 22.9804C90.0846 31.9071 81.8234 34.2187 74.3456 34.2187C71.0217 34.2187 67.1908 33.4326 64.3751 32.5534L66.409 25.9879C68.1165 27.0967 71.5299 27.8371 74.3456 27.8371C77.0228 27.8371 81.2245 27.3284 81.2245 23.9984C81.2245 18.8169 68.7143 20.7597 68.7143 11.6481C68.7143 3.32424 76.0075 0.825439 83.0683 0.825439C87.0399 0.825439 90.7785 1.24053 92.9459 2.25954L90.8691 8.68902ZM40.7001 1.38146H49.3316L46.7923 13.7307H56.9935L59.5311 1.38146H68.1616L61.47 33.6649H52.8379L55.7019 19.8353H45.4991L42.64 33.6649H34.0068L40.7001 1.38146ZM7.42712 1.38146H18.1804L24.7825 23.7655H24.8737L29.3952 1.38146H37.5213L30.6901 33.6649H19.9808L13.2419 11.3249H13.1491L8.67315 33.6649H0.548157" fill="#4C4848"/>
</svg>
