<svg width="163" height="35" viewBox="0 0 163 35" fill="none" xmlns="http://www.w3.org/2000/svg">
<path d="M13.7691 16.8613C14.7706 16.8613 15.6446 16.8963 16.4193 17.038C17.5219 17.2323 18.4553 18.774 18.4553 19.5265C18.4553 19.9115 18.4553 20.3385 18.2878 20.9615C18.0157 21.917 16.1454 25.354 15.3672 26.6473C14.4303 25.123 12.2251 20.818 11.4626 19.1415C11.1312 18.438 10.9637 17.8535 10.9637 17.5665C10.9637 17.038 12.0105 16.8613 13.7691 16.8613ZM1.27197 16.8613C2.20711 17.094 2.75495 17.2883 3.5226 18.6673C6.22511 23.6425 8.93111 29.127 11.5638 34.5223C11.8953 34.8023 12.2826 34.8653 12.8427 34.8653C13.3835 34.8653 13.7674 34.8023 14.1128 34.524C15.3672 32.1493 18.6769 25.7758 20.104 23.3013C21.765 26.3603 24.6245 31.9428 25.7847 34.524C26.1058 34.804 26.5035 34.8653 27.0461 34.8653C27.5957 34.8653 27.9917 34.8023 28.311 34.524C30.647 29.3978 33.1095 24.3306 35.6963 19.327C36.5791 17.5665 36.9612 17.094 38.7809 16.7545L39.552 16.618C39.9917 16.1753 39.8783 15.1375 39.3897 14.938C38.1772 15.0343 36.7466 15.0833 35.1397 15.0833C33.7649 15.0833 32.4529 15.0343 30.628 14.938C30.0766 15.1375 30.0766 16.2768 30.4134 16.618L31.3415 16.7983C32.2889 16.9925 32.7216 17.2323 32.7216 17.4755C32.7216 17.8098 32.5541 18.4783 32.2121 19.327C31.3415 21.5373 30.4779 23.8805 29.1397 26.6473C27.9324 24.3478 26.3936 21.2503 25.3957 18.9543C25.0712 18.1475 24.9595 17.8518 24.9595 17.4755C24.9595 17.2323 25.7219 16.9925 26.9973 16.7545L27.8173 16.618C28.2151 16.4238 28.2569 14.9958 27.6533 14.938C24.4044 15.0342 21.1543 15.0826 17.904 15.0833H6.77818C4.46473 15.0833 2.70609 15.0343 0.448477 14.938C-0.115055 15.1778 -0.115055 16.2278 0.26703 16.618L1.27197 16.8613Z" fill="#4C4848"/>
<path d="M47.2825 16.555C49.1476 16.555 50.2014 17.5962 50.2014 19.1765C50.2014 19.656 50.0915 20.139 49.8175 20.2755C49.2017 20.6115 48.3224 20.7007 47.5529 20.7007H45.5187C43.7461 20.7007 42.9854 20.6657 42.9854 19.9885C42.9854 18.4555 44.9691 16.5532 47.2843 16.5532L47.2825 16.555ZM47.2249 34.8005C50.5276 34.8005 54.6154 33.4127 56.8678 29.3545C56.8678 28.5407 56.0321 28.1557 55.4337 28.245C53.9455 30.4517 51.8449 30.73 50.3078 30.73C45.1889 30.73 42.537 27.2492 42.537 23.667C42.537 22.904 42.6521 22.8095 43.9223 22.8095H54.4863C56.2066 22.8095 56.4752 22.141 56.4752 21.2345C56.4752 17.5507 53.3872 14.3517 47.6576 14.3517C40.7836 14.3517 35.7694 19.0365 35.7694 25.0582C35.7694 30.2645 39.7909 34.8005 47.2249 34.8005ZM70.5461 16.8612C71.5528 16.8612 72.4269 16.8962 73.2015 17.038C74.3041 17.2322 75.2393 18.774 75.2393 19.5265C75.2393 19.9115 75.2393 20.3385 75.0753 20.9615C74.7926 21.917 72.9241 25.354 72.1564 26.6472C71.2091 25.123 69.016 20.818 68.2449 19.1415C67.9204 18.438 67.7476 17.8535 67.7476 17.5665C67.7476 17.038 68.7875 16.8612 70.5461 16.8612ZM58.0507 16.8612C58.9946 17.094 59.5372 17.2882 60.3083 18.6672C63.0021 23.6425 65.7151 29.127 68.3513 34.5222C68.6863 34.8022 69.0701 34.8652 69.6214 34.8652C70.1675 34.8652 70.5461 34.8022 70.8846 34.524C72.1582 32.1492 75.4556 25.7757 76.8915 23.3012C78.549 26.3602 81.3998 31.9427 82.56 34.524C82.8915 34.804 83.2753 34.8652 83.8231 34.8652C84.3797 34.8652 84.767 34.8022 85.0932 34.524C87.432 29.3986 89.8957 24.3314 92.482 19.327C93.363 17.5665 93.7434 17.094 95.5596 16.7545L96.3377 16.618C96.7721 16.1752 96.657 15.1375 96.1685 14.938C94.9507 15.0342 93.527 15.0832 91.9219 15.0832C90.417 15.076 88.9125 15.0276 87.4102 14.938C86.8519 15.1375 86.8519 16.2767 87.1904 16.618L88.1255 16.7982C89.0642 16.9925 89.5003 17.2322 89.5003 17.4755C89.5003 17.8097 89.3346 18.4782 89.0101 19.327C88.1255 21.5372 87.2427 23.8805 85.9167 26.6472C84.7094 24.3477 83.1706 21.2502 82.1796 18.9542C81.8447 18.1475 81.7347 17.8517 81.7347 17.4755C81.7347 17.2322 82.5007 16.9925 83.776 16.7545L84.596 16.618C84.9833 16.4237 85.0409 14.9957 84.432 14.938C80.9113 15.0342 78.1477 15.0832 74.6827 15.0832H63.5552C61.4444 15.0835 59.334 15.0351 57.2255 14.938C56.6794 15.1777 56.6794 16.2277 57.0632 16.618L58.0507 16.8612Z" fill="#4C4848"/>
<path d="M105.208 16.555C108.336 16.555 109.88 20.559 109.941 25.2C109.988 29.5015 108.936 32.6042 105.794 32.6042C102.614 32.6042 100.787 28.9187 100.787 23.9102C100.787 18.7092 102.781 16.5532 105.208 16.5532V16.555ZM105.208 34.8005C111.974 34.8005 117.873 31.507 117.873 24.5227C117.873 17.7887 112.025 14.3517 105.531 14.3517C99.0284 14.3517 92.8034 18.123 92.8557 24.9602C92.9203 31.5472 98.6411 34.8005 105.208 34.8005Z" fill="#4C4848"/>
<path d="M127.257 18.3995C127.597 18.3995 128.086 18.452 129.347 19.355C130.054 19.9325 130.717 20.2195 131.493 20.2195C133.252 20.2195 135.023 19.313 135.023 17.1132C135.023 15.309 133.48 14.2957 131.982 14.2957C129.677 14.2957 128.086 15.8707 126.589 16.6792C126.153 16.5917 126.037 16.4465 126.037 16.1087C126.037 15.6817 126.151 15.0185 126.252 14.0542C126.037 13.7707 125.699 13.6185 125.275 13.6185C123.56 14.588 119.762 15.8707 117.22 16.499C116.836 16.779 116.836 17.64 117.22 17.9287L118.005 18.3592C119.046 18.9332 119.046 19.5037 119.046 21.4182V28.6282C119.046 31.9707 118.825 32.3995 117.005 32.55L115.957 32.6375C115.513 32.9245 115.513 34.0305 116.014 34.3175C118.18 34.2117 120.348 34.1626 122.517 34.1705C125.099 34.1705 127.308 34.2125 129.954 34.3157C130.45 34.0305 130.45 32.9245 130.005 32.6375L128.243 32.5045C126.425 32.3522 126.201 31.969 126.201 28.6282V21.273C126.201 19.46 126.481 18.3995 127.259 18.3995" fill="#4C4848"/>
<path d="M148.87 32.48L148.157 32.6287C147.71 33.0575 147.818 34.055 148.371 34.2912C149.914 34.1968 151.89 34.1512 155.155 34.1512C158.347 34.1512 160.382 34.1968 162.085 34.2912C162.638 34.1075 162.751 32.9595 162.303 32.6287L161.484 32.4782C160.056 32.242 159.01 31.9953 158.239 31.3845C156.854 30.2873 152.006 23.786 151.029 22.2582C150.744 21.8767 150.627 21.5933 150.627 21.4445C150.627 21.3045 150.685 21.1155 150.955 20.8215C151.73 20.1617 152.571 19.432 154.656 18.0477C156.137 17.0537 157.304 16.5777 158.349 16.3818L160.104 16.0457C160.499 15.673 160.445 14.6055 159.881 14.3745C156.639 14.8085 152.065 15.043 149.472 15.043H148.157C147.607 15.2425 147.546 16.2855 148.042 16.7142L149.423 16.9137C149.914 16.9522 150.463 17.1413 150.463 17.3863C150.463 17.6733 150.198 18.1947 149.144 19.2868L146.838 21.6423C145.732 22.736 144.575 22.9757 143.638 22.9757C143.04 22.9757 142.862 22.8323 142.862 22.3055V7.30975C142.862 4.29625 142.932 2.28725 143.04 0.3325C142.823 0.0875 142.426 0 142.098 0C139.282 1.04125 135.93 2.19975 133.674 2.66525C133.283 2.95925 133.283 3.822 133.674 4.09325L134.609 4.58325C135.707 5.159 135.707 5.68225 135.707 7.60375V28.6108C135.707 31.9533 135.485 32.3365 133.495 32.5342L132.448 32.6287C132.013 32.9088 132.013 34.0112 132.504 34.2912C134.743 34.1911 136.985 34.1444 139.228 34.1512C141.764 34.1512 144.074 34.1968 145.845 34.2912C146.334 34.0112 146.334 32.9088 145.897 32.6287L145.022 32.5342C143.085 32.3365 142.862 31.9515 142.862 28.6108V25.8458C142.862 24.9305 143.141 24.6978 143.521 24.6978C144.074 24.6978 144.517 24.8903 144.91 25.4013L148.815 30.5725C149.256 31.1395 149.748 31.9025 149.748 32.109C149.748 32.2857 149.423 32.375 148.87 32.4782" fill="#4C4848"/>
</svg>
