<svg width="38" height="33" viewBox="0 0 38 33" fill="none" xmlns="http://www.w3.org/2000/svg">
<path d="M8.44 32.36C5.96 32.36 4 31.52 2.56 29.84C1.2 28.16 0.52 26 0.52 23.36C0.52 18.56 1.6 14.36 3.76 10.76C5.92 7.08 9.36 3.76 14.08 0.799993L15.88 3.32C9.4 7.72 6.16 12.88 6.16 18.8L8.68 18.08C10.84 18.08 12.52 18.72 13.72 20C15 21.28 15.64 22.96 15.64 25.04C15.64 27.2 14.96 28.96 13.6 30.32C12.32 31.68 10.6 32.36 8.44 32.36ZM30.16 32.36C27.68 32.36 25.72 31.52 24.28 29.84C22.92 28.16 22.24 26 22.24 23.36C22.24 18.56 23.32 14.36 25.48 10.76C27.64 7.08 31.08 3.76 35.8 0.799993L37.6 3.32C31.12 7.72 27.88 12.88 27.88 18.8L30.4 18.08C32.56 18.08 34.28 18.72 35.56 20C36.84 21.28 37.48 22.96 37.48 25.04C37.48 27.2 36.8 28.96 35.44 30.32C34.16 31.68 32.4 32.36 30.16 32.36Z" fill="#00CDA8"/>
</svg>
