<svg width="87" height="18" viewBox="0 0 87 18" fill="none" xmlns="http://www.w3.org/2000/svg">
<path d="M9 0L11.0206 6.21885H17.5595L12.2694 10.0623L14.2901 16.2812L9 12.4377L3.70993 16.2812L5.73056 10.0623L0.440492 6.21885H6.97937L9 0Z" fill="#00CDA8"/>
<path d="M27 0L29.0206 6.21885H35.5595L30.2694 10.0623L32.2901 16.2812L27 12.4377L21.7099 16.2812L23.7306 10.0623L18.4405 6.21885H24.9794L27 0Z" fill="#00CDA8"/>
<path d="M44.5 0L46.4084 6.21885H52.584L47.5878 10.0623L49.4962 16.2812L44.5 12.4377L39.5038 16.2812L41.4122 10.0623L36.416 6.21885H42.5916L44.5 0Z" fill="#00CDA8"/>
<path d="M62 0L64.0206 6.21885H70.5595L65.2694 10.0623L67.2901 16.2812L62 12.4377L56.7099 16.2812L58.7306 10.0623L53.4405 6.21885H59.9794L62 0Z" fill="#00CDA8"/>
<path d="M78 0L80.0206 6.21885H86.5595L81.2694 10.0623L83.2901 16.2812L78 12.4377L72.7099 16.2812L74.7306 10.0623L69.4405 6.21885H75.9794L78 0Z" fill="#00CDA8"/>
</svg>
